HIERARCHY
ROOT Hip
{
	OFFSET -0.168744 0.033018 0.146345
	CHANNELS 6 Xposition Yposition Zposition Xrotation Yrotation Zrotation
	JOINT LowerSpine
	{
		OFFSET -0.000000 0.154692 0.259874
		CHANNELS 6 Xposition Yposition Zposition Xrotation Yrotation Zrotation
		JOINT MiddleSpine
		{
			OFFSET 0.000000 -0.011152 0.237154
			CHANNELS 3 Xrotation Yrotation Zrotation
			JOINT Chest
			{
				OFFSET -0.000000 0.058786 0.293448
				CHANNELS 3 Xrotation Yrotation Zrotation
				JOINT Neck
				{
					OFFSET -0.000000 0.012376 0.661278
					CHANNELS 6 Xposition Yposition Zposition Xrotation Yrotation Zrotation
					JOINT Head
					{
						OFFSET -0.000003 -0.101573 0.373433
						CHANNELS 3 Xrotation Yrotation Zrotation
						End Site
						{
							OFFSET 0.000000 -0.001601 0.053629
						}
					}
				}
				JOINT LClavicle
				{
					OFFSET 0.060085 -0.196776 0.638168
					CHANNELS 6 Xposition Yposition Zposition Xrotation Yrotation Zrotation
					JOINT LShoulder
					{
						OFFSET 0.351028 0.148114 0.091535
						CHANNELS 3 Xrotation Yrotation Zrotation
						JOINT LForearm
						{
							OFFSET 0.828500 0.007179 -0.002937
							CHANNELS 3 Xrotation Yrotation Zrotation
							JOINT LHand
							{
								OFFSET 0.691143 0.004141 0.002005
								CHANNELS 3 Xrotation Yrotation Zrotation
								JOINT LFinger1
								{
									OFFSET 0.267868 -0.074399 0.023428
									CHANNELS 6 Xposition Yposition Zposition Xrotation Yrotation Zrotation
									JOINT LFinger11
									{
										OFFSET 0.100195 -0.017654 -0.024433
										CHANNELS 3 Xrotation Yrotation Zrotation
										JOINT LFinger12
										{
											OFFSET 0.068401 -0.012057 -0.016682
											CHANNELS 3 Xrotation Yrotation Zrotation
											End Site
											{
												OFFSET 0.050801 -0.008241 -0.015164
											}
										}
									}
								}
								JOINT LFinger2
								{
									OFFSET 0.271866 -0.006476 0.027054
									CHANNELS 6 Xposition Yposition Zposition Xrotation Yrotation Zrotation
									JOINT LFinger21
									{
										OFFSET 0.123886 0.000731 0.000344
										CHANNELS 3 Xrotation Yrotation Zrotation
										JOINT LFinger22
										{
											OFFSET 0.068670 0.000417 0.000210
											CHANNELS 3 Xrotation Yrotation Zrotation
											End Site
											{
												OFFSET 0.053519 -0.000073 -0.003780
											}
										}
									}
								}
								JOINT LFinger3
								{
									OFFSET 0.257650 0.060956 0.018054
									CHANNELS 6 Xposition Yposition Zposition Xrotation Yrotation Zrotation
									JOINT LFinger31
									{
										OFFSET 0.112414 0.007039 -0.005692
										CHANNELS 3 Xrotation Yrotation Zrotation
										JOINT LFinger32
										{
											OFFSET 0.064059 0.004024 -0.003223
											CHANNELS 3 Xrotation Yrotation Zrotation
											End Site
											{
												OFFSET 0.053193 0.002514 -0.006540
											}
										}
									}
								}
								JOINT LFinger4
								{
									OFFSET 0.239089 0.105269 -0.018169
									CHANNELS 6 Xposition Yposition Zposition Xrotation Yrotation Zrotation
									JOINT LFinger41
									{
										OFFSET 0.069146 0.019088 -0.014420
										CHANNELS 3 Xrotation Yrotation Zrotation
										JOINT LFinger42
										{
											OFFSET 0.050705 0.014006 -0.010559
											CHANNELS 3 Xrotation Yrotation Zrotation
											End Site
											{
												OFFSET 0.050514 0.011591 -0.013879
											}
										}
									}
								}
								JOINT LFinger0
								{
									OFFSET 0.055412 -0.042008 -0.041941
									CHANNELS 6 Xposition Yposition Zposition Xrotation Yrotation Zrotation
									JOINT LFinger01
									{
										OFFSET 0.103169 -0.077784 -0.033880
										CHANNELS 3 Xrotation Yrotation Zrotation
										JOINT LFinger02
										{
											OFFSET 0.067934 -0.048944 -0.024309
											CHANNELS 3 Xrotation Yrotation Zrotation
											End Site
											{
												OFFSET 0.042584 -0.029159 -0.014660
											}
										}
									}
								}
							}
						}
					}
				}
				JOINT RClavicle
				{
					OFFSET -0.060085 -0.196776 0.638168
					CHANNELS 6 Xposition Yposition Zposition Xrotation Yrotation Zrotation
					JOINT RShoulder
					{
						OFFSET -0.351089 0.148139 0.091552
						CHANNELS 3 Xrotation Yrotation Zrotation
						JOINT RForearm
						{
							OFFSET -0.828500 0.007179 -0.002937
							CHANNELS 3 Xrotation Yrotation Zrotation
							JOINT RHand
							{
								OFFSET -0.691144 0.004141 0.002005
								CHANNELS 3 Xrotation Yrotation Zrotation
								JOINT RFinger1
								{
									OFFSET -0.267870 -0.074399 0.023430
									CHANNELS 6 Xposition Yposition Zposition Xrotation Yrotation Zrotation
									JOINT RFinger11
									{
										OFFSET -0.100195 -0.017654 -0.024433
										CHANNELS 3 Xrotation Yrotation Zrotation
										JOINT RFinger12
										{
											OFFSET -0.068401 -0.012057 -0.016688
											CHANNELS 3 Xrotation Yrotation Zrotation
											End Site
											{
												OFFSET -0.050801 -0.008241 -0.015164
											}
										}
									}
								}
								JOINT RFinger2
								{
									OFFSET -0.271866 -0.006479 0.027054
									CHANNELS 6 Xposition Yposition Zposition Xrotation Yrotation Zrotation
									JOINT RFinger21
									{
										OFFSET -0.123886 0.000731 0.000347
										CHANNELS 3 Xrotation Yrotation Zrotation
										JOINT RFinger22
										{
											OFFSET -0.068670 0.000420 0.000210
											CHANNELS 3 Xrotation Yrotation Zrotation
											End Site
											{
												OFFSET -0.053519 -0.000073 -0.003780
											}
										}
									}
								}
								JOINT RFinger3
								{
									OFFSET -0.257650 0.060956 0.018057
									CHANNELS 6 Xposition Yposition Zposition Xrotation Yrotation Zrotation
									JOINT RFinger31
									{
										OFFSET -0.112414 0.007039 -0.005692
										CHANNELS 3 Xrotation Yrotation Zrotation
										JOINT RFinger32
										{
											OFFSET -0.064061 0.004024 -0.003223
											CHANNELS 3 Xrotation Yrotation Zrotation
											End Site
											{
												OFFSET -0.053193 0.002514 -0.006540
											}
										}
									}
								}
								JOINT RFinger4
								{
									OFFSET -0.239089 0.105269 -0.018169
									CHANNELS 6 Xposition Yposition Zposition Xrotation Yrotation Zrotation
									JOINT RFinger41
									{
										OFFSET -0.069146 0.019088 -0.014420
										CHANNELS 3 Xrotation Yrotation Zrotation
										JOINT RFinger42
										{
											OFFSET -0.050705 0.014006 -0.010556
											CHANNELS 3 Xrotation Yrotation Zrotation
											End Site
											{
												OFFSET -0.050514 0.011591 -0.013879
											}
										}
									}
								}
								JOINT RFinger0
								{
									OFFSET -0.055412 -0.042006 -0.041938
									CHANNELS 6 Xposition Yposition Zposition Xrotation Yrotation Zrotation
									JOINT RFinger01
									{
										OFFSET -0.103169 -0.077787 -0.033886
										CHANNELS 3 Xrotation Yrotation Zrotation
										JOINT RFinger02
										{
											OFFSET -0.067934 -0.048944 -0.024307
											CHANNELS 3 Xrotation Yrotation Zrotation
											End Site
											{
												OFFSET -0.042585 -0.029159 -0.014659
											}
										}
									}
								}
							}
						}
					}
				}
			}
		}
	}
	JOINT RThigh
	{
		OFFSET -0.307261 0.025206 0.117468
		CHANNELS 6 Xposition Yposition Zposition Xrotation Yrotation Zrotation
		JOINT RShin
		{
			OFFSET -0.022246 0.000000 -1.209169
			CHANNELS 3 Xrotation Yrotation Zrotation
			JOINT RFoot
			{
				OFFSET 0.000000 0.000000 -1.187332
				CHANNELS 3 Xrotation Yrotation Zrotation
				JOINT RToe
				{
					OFFSET 0.000000 -0.272888 -0.130497
					CHANNELS 3 Xrotation Yrotation Zrotation
					End Site
					{
						OFFSET 0.000000 -0.053653 0.000000
					}
				}
			}
		}
	}
	JOINT LThigh
	{
		OFFSET 0.307258 0.025206 0.117477
		CHANNELS 6 Xposition Yposition Zposition Xrotation Yrotation Zrotation
		JOINT LShin
		{
			OFFSET 0.022246 0.000000 -1.209177
			CHANNELS 3 Xrotation Yrotation Zrotation
			JOINT LFoot
			{
				OFFSET -0.000000 0.000000 -1.187331
				CHANNELS 3 Xrotation Yrotation Zrotation
				JOINT LToe
				{
					OFFSET 0.000000 -0.272891 -0.130499
					CHANNELS 3 Xrotation Yrotation Zrotation
					End Site
					{
						OFFSET 0.000000 -0.053653 0.000000
					}
				}
			}
		}
	}
}
MOTION
Frames: 4
Frame Time: 0.041667
0.065145 0.551847 2.317734 14.780523 -5.367155 320.750164 0.000000 0.154692 0.259874 -0.000014 -0.000002 -0.000004 -1.951397 -0.385577 0.753994 -6.514421 -1.568449 2.344256 -0.000000 0.012376 0.661279 -15.772218 -7.658555 -3.271190 -3.690939 -0.603424 -0.037611 0.060085 -0.196776 0.638168 -0.101587 8.984293 -0.011485 20.278934 -0.047411 -66.470602 -0.000003 0.000004 3.054937 0.000004 -0.000010 0.000010 0.267867 -0.074399 0.023428 -0.000006 -0.000009 -0.000022 -0.000000 0.000004 0.000002 0.000001 0.000008 -0.000014 0.271866 -0.006476 0.027054 -0.000002 -0.000004 -0.000018 0.000001 -0.000002 0.000002 -0.000002 0.000001 -0.000010 0.257650 0.060956 0.018054 -0.000003 -0.000011 -0.000018 0.000003 -0.000003 0.000004 -0.000001 -0.000003 -0.000005 0.239089 0.105269 -0.018169 -0.000007 -0.000011 -0.000017 -0.000001 0.000001 0.000007 0.000003 -0.000009 0.000008 0.055411 -0.042008 -0.041941 0.000012 -0.000012 -0.000016 -0.000006 0.000007 -0.000004 0.000003 -0.000008 0.000010 -0.060085 -0.196776 0.638168 3.527487 -13.756116 5.369807 46.978191 -56.194429 40.332387 0.047883 0.001151 16.480804 0.000004 -0.000000 -0.000013 -0.267871 -0.074399 0.023430 -0.000004 -0.000000 0.000007 0.000002 0.000000 -0.000001 0.000003 -0.000004 -0.000006 -0.271866 -0.006479 0.027054 -0.000001 -0.000003 0.000007 0.000002 0.000003 -0.000008 0.000001 -0.000002 -0.000000 -0.257651 0.060956 0.018057 -0.000001 0.000008 0.000007 0.000001 0.000003 0.000003 0.000003 -0.000011 0.000004 -0.239090 0.105269 -0.018169 -0.000001 0.000004 0.000011 -0.000001 -0.000006 0.000004 -0.000004 0.000016 0.000010 -0.055412 -0.042006 -0.041939 -0.000003 -0.000008 -0.000001 -0.000008 0.000005 -0.000009 0.000004 0.000002 -0.000009 -0.303551 0.040114 0.222303 -17.034024 0.545607 1.813985 23.736656 0.000007 0.000008 1.888330 3.295877 -7.187279 -12.050613 -0.000012 -0.000002 0.294531 0.029635 0.164450 -21.750797 -8.367289 -0.070367 1.002833 -0.000048 0.000003 0.153737 -0.891351 1.864154 0.000012 -0.000046 0.000004 
0.071387 0.501797 2.316046 14.842221 -4.707856 324.644629 -0.000000 0.154692 0.259874 -0.000009 -0.000002 -0.000001 -2.014063 -0.407937 0.707627 -6.702454 -1.533209 2.239204 0.000000 0.012376 0.661279 -15.430982 -7.459708 -3.159851 -3.695788 -0.700467 -0.043728 0.060085 -0.196776 0.638168 -0.117833 9.031096 -0.013270 20.805402 -0.360962 -68.808371 0.001398 0.000021 2.703268 0.000003 -0.000010 0.000010 0.267867 -0.074399 0.023428 -0.000007 -0.000004 -0.000022 0.000001 0.000010 0.000002 -0.000003 0.000010 -0.000013 0.271866 -0.006476 0.027054 -0.000004 -0.000002 -0.000017 0.000000 0.000001 0.000003 -0.000001 -0.000002 -0.000012 0.257651 0.060956 0.018054 -0.000002 -0.000008 -0.000016 0.000004 -0.000007 0.000005 -0.000002 -0.000000 -0.000007 0.239089 0.105269 -0.018169 -0.000009 -0.000004 -0.000017 -0.000002 0.000000 0.000005 0.000003 -0.000008 0.000006 0.055412 -0.042008 -0.041941 0.000018 -0.000004 -0.000015 -0.000008 0.000001 -0.000003 0.000002 -0.000006 0.000009 -0.060085 -0.196776 0.638167 3.487599 -13.787702 5.307837 47.965072 -56.330991 40.861549 0.047137 0.001561 16.979741 0.000004 -0.000000 -0.000014 -0.267870 -0.074399 0.023430 -0.000004 0.000000 0.000008 0.000003 -0.000000 -0.000000 0.000005 -0.000003 -0.000005 -0.271866 -0.006479 0.027054 0.000000 -0.000002 0.000006 0.000001 0.000005 -0.000008 0.000001 -0.000001 -0.000000 -0.257650 0.060956 0.018057 -0.000001 0.000009 0.000008 0.000000 0.000002 0.000003 0.000004 -0.000011 0.000004 -0.239090 0.105269 -0.018169 -0.000000 0.000004 0.000011 0.000001 -0.000007 0.000004 -0.000006 0.000015 0.000008 -0.055412 -0.042006 -0.041939 0.000001 -0.000008 -0.000001 -0.000005 0.000007 -0.000011 -0.000001 -0.000002 -0.000014 -0.303368 0.039834 0.220345 -16.988912 1.048389 2.702992 26.328573 0.000006 0.000007 2.384287 2.982272 -6.587893 -15.467267 -0.000012 -0.000006 0.294530 0.029635 0.164451 -21.874977 -6.606478 0.083587 1.323961 -0.000048 0.000000 0.018775 -0.477852 1.002577 0.000012 -0.000046 -0.000001 
0.073965 0.457949 2.316049 14.971652 -3.916665 327.824601 0.000000 0.154692 0.259874 -0.000011 -0.000002 -0.000002 -2.077121 -0.425998 0.666230 -6.906273 -1.546844 2.122103 -0.000000 0.012376 0.661279 -15.002323 -7.225849 -3.028746 -3.682460 -0.804076 -0.050123 0.060085 -0.196775 0.638168 -0.153561 9.133912 -0.017146 21.333570 -0.521594 -70.342165 0.003603 0.000134 2.080504 0.000003 -0.000012 0.000010 0.267868 -0.074399 0.023428 -0.000006 -0.000007 -0.000021 -0.000000 0.000007 0.000002 -0.000002 0.000008 -0.000014 0.271866 -0.006476 0.027054 -0.000003 -0.000000 -0.000017 -0.000000 0.000001 0.000002 -0.000002 0.000001 -0.000009 0.257651 0.060956 0.018054 -0.000003 -0.000008 -0.000017 0.000003 -0.000002 0.000005 -0.000002 0.000001 -0.000005 0.239090 0.105269 -0.018169 -0.000009 -0.000005 -0.000016 -0.000003 0.000001 0.000005 0.000002 -0.000007 0.000007 0.055412 -0.042008 -0.041941 0.000013 -0.000007 -0.000014 -0.000009 0.000005 -0.000006 0.000002 -0.000005 0.000012 -0.060085 -0.196776 0.638168 3.448934 -13.818283 5.247795 49.157401 -56.106295 42.108594 0.045532 0.001184 16.365027 0.000003 0.000001 -0.000014 -0.267871 -0.074399 0.023430 -0.000003 -0.000000 0.000008 0.000001 0.000001 -0.000001 0.000001 -0.000004 -0.000006 -0.271866 -0.006479 0.027054 0.000000 -0.000004 0.000006 0.000001 0.000004 -0.000008 0.000001 -0.000000 -0.000000 -0.257650 0.060956 0.018058 -0.000001 0.000008 0.000008 -0.000000 0.000002 0.000004 0.000005 -0.000011 0.000004 -0.239089 0.105269 -0.018169 -0.000000 0.000003 0.000011 0.000000 -0.000006 0.000006 -0.000003 0.000015 0.000006 -0.055412 -0.042006 -0.041939 -0.000003 -0.000005 -0.000002 -0.000010 0.000003 -0.000007 -0.000003 -0.000003 -0.000010 -0.303176 0.039540 0.218290 -17.608236 1.003076 3.600331 29.619607 0.000006 0.000006 3.729031 2.428676 -5.528194 -19.767870 -0.000016 -0.000008 0.294531 0.029635 0.164450 -21.705615 -5.508667 0.140714 1.569499 -0.000049 0.000001 -0.449484 0.078076 -0.160546 0.000012 -0.000047 0.000000 
0.072921 0.417539 2.320890 15.150726 -3.010597 330.759233 -0.000000 0.154691 0.259873 -0.000014 -0.000003 -0.000001 -2.140101 -0.440795 0.630059 -7.117312 -1.584327 2.006360 -0.000000 0.012376 0.661279 -14.563828 -7.000006 -2.902416 -3.652193 -0.912229 -0.056640 0.060085 -0.196776 0.638168 -0.241847 9.376584 -0.026491 21.943405 -0.541871 -71.575622 0.006834 0.000505 1.096732 0.000003 -0.000009 0.000009 0.267867 -0.074399 0.023428 -0.000006 -0.000006 -0.000019 0.000001 0.000005 0.000002 -0.000004 0.000004 -0.000014 0.271866 -0.006476 0.027054 -0.000003 -0.000002 -0.000016 0.000000 -0.000001 0.000003 -0.000002 -0.000002 -0.000011 0.257651 0.060956 0.018054 -0.000003 -0.000009 -0.000016 0.000004 -0.000008 0.000006 -0.000002 0.000000 -0.000006 0.239089 0.105269 -0.018170 -0.000008 -0.000004 -0.000016 -0.000000 0.000000 0.000006 0.000003 -0.000009 0.000009 0.055412 -0.042008 -0.041942 0.000011 -0.000008 -0.000013 -0.000010 0.000003 0.000001 0.000004 -0.000009 0.000015 -0.060085 -0.196776 0.638167 3.407633 -13.850853 5.183682 50.734461 -55.238714 44.657730 0.035603 -0.000164 13.007800 0.000004 0.000002 -0.000014 -0.267870 -0.074399 0.023430 -0.000003 0.000001 0.000007 0.000004 0.000001 -0.000002 0.000002 -0.000002 -0.000006 -0.271866 -0.006479 0.027054 -0.000000 -0.000003 0.000007 0.000002 0.000003 -0.000008 0.000002 -0.000001 0.000000 -0.257650 0.060956 0.018058 -0.000001 0.000009 0.000008 0.000000 0.000002 0.000004 0.000005 -0.000011 0.000004 -0.239089 0.105269 -0.018169 0.000001 0.000004 0.000013 -0.000002 -0.000007 0.000003 -0.000003 0.000015 0.000007 -0.055412 -0.042006 -0.041938 -0.000002 -0.000005 0.000001 -0.000005 0.000007 -0.000012 -0.000000 -0.000001 -0.000007 -0.302978 0.039236 0.216162 -18.634001 0.542051 4.560812 33.090101 0.000005 0.000006 4.002213 1.430703 -3.264828 -22.818366 -0.000016 -0.000007 0.294531 0.029635 0.164450 -21.359332 -4.835190 0.139789 1.663822 -0.000048 0.000002 -0.094571 0.775226 -1.617400 0.000012 -0.000045 0.000000 
